#!OML:ASF I:\Actors\actors\Patient Classification 1\Patient 1\Session 1\Subject1.ASF
:FULLY-SPECIFIED
:DEGREES
623
root 1.32913 17.5005 9.63389 12.3416 -15.6896 -8.83994
lowerback -2.18521 -3.23297 3.3736
upperback -11.6454 -3.96165 4.74221
thorax -11.1231 -2.03422 3.54388
lowerneck -10.0969 -0.421738 0.214419
upperneck 30.0106 -2.01148 3.55196
head 11.4479 -0.553386 0.998312
rclavicle -2.45499e-014 5.96354e-014
rhumerus -58.7046 -33.8481 -44.4038
rradius 22.7184
rwrist 54.042
rhand 4.86293 -31.7292
rfingers 7.12502
rthumb 30.2392 -59.2729
lclavicle -2.45499e-014 5.96354e-014
lhumerus 23.8459 -18.1858 65.4263
lradius 142.858
lwrist 46.4862
lhand -0.956688 -11.1403
lfingers 7.12502
lthumb 24.6737 17.289
rfemur -8.39393 27.427 20.4705
rtibia 3.3551
rfoot -8.79929 -17.168
rtoes -8.0579
lfemur 11.8701 -48.552 -22.4957
ltibia -5.36145
lfoot -55.3885 60.4198
ltoes 34.3268
624
root 1.33405 17.4989 9.6481 12.3401 -15.9088 -8.94791
lowerback -2.26703 -3.26105 3.38523
upperback -11.6448 -4.00573 4.74602
thorax -11.0724 -2.05832 3.53811
lowerneck -10.132 -0.45314 0.258661
upperneck 30.3549 -2.14995 3.73186
head 11.5962 -0.588104 1.04261
rclavicle 4.08502e-014 1.98785e-015
rhumerus -59.115 -33.9379 -44.0407
rradius 22.7434
rwrist 54.0375
rhand 4.82545 -31.8168
rfingers 7.12502
rthumb 30.2035 -59.367
lclavicle 4.08502e-014 1.98785e-015
lhumerus 23.8861 -18.3378 65.4677
lradius 142.792
lwrist 46.5132
lhand -0.974276 -11.0714
lfingers 7.12502
lthumb 24.6569 17.3601
rfemur -8.3185 27.4244 20.5803
rtibia 3.33309
rfoot -8.81624 -16.9735
rtoes -7.77055
lfemur 12.1702 -48.6082 -22.6887
ltibia -5.38326
lfoot -56.0921 60.4641
ltoes 34.599
625
root 1.33784 17.4967 9.66371 12.3094 -16.1416 -9.03768
lowerback -2.37259 -3.27858 3.36764
upperback -11.6302 -4.03881 4.74521
thorax -10.9892 -2.07482 3.53919
lowerneck -10.1644 -0.485818 0.360453
upperneck 30.7206 -2.29659 3.87764
head 11.7534 -0.623337 1.06371
rclavicle -2.25621e-014 -1.51076e-014
rhumerus -59.5238 -34.1121 -43.5917
rradius 22.705
rwrist 54.0376
rhand 4.77452 -31.8009
rfingers 7.12502
rthumb 30.1549 -59.36
lclavicle -2.25621e-014 -1.51076e-014
lhumerus 23.9486 -18.4436 65.4342
lradius 142.736
lwrist 46.569
lhand -1.03103 -10.9861
lfingers 7.12502
lthumb 24.6025 17.4529
rfemur -8.19239 27.3675 20.6912
rtibia 3.28581
rfoot -8.81858 -16.716
rtoes -7.51775
lfemur 12.5582 -48.6862 -22.9902
ltibia -5.39197
lfoot -56.7889 60.5628
ltoes 34.7939
626
root 1.3403 17.496 9.67875 12.2924 -16.354 -9.1163
lowerback -2.47884 -3.325 3.32699
upperback -11.6856 -4.10832 4.76868
thorax -10.9825 -2.10535 3.58789
lowerneck -9.99533 -0.452491 0.412328
upperneck 31.0787 -2.35325 4.0828
head 11.8664 -0.619186 1.12801
rclavicle -4.47266e-014 5.96354e-015
rhumerus -60.041 -34.2305 -42.997
rradius 22.6934
rwrist 54.223
rhand 4.92931 -31.6812
rfingers 7.12502
rthumb 30.3025 -59.2133
lclavicle -4.47266e-014 5.96354e-015
lhumerus 23.825 -18.4816 65.4126
lradius 142.753
lwrist 46.6468
lhand -0.977136 -10.7652
lfingers 7.12502
lthumb 24.6541 17.6667
rfemur -8.08677 27.3019 20.7905
rtibia 3.24481
rfoot -8.7518 -16.4785
rtoes -7.60791
lfemur 13.0164 -49.0055 -23.38
ltibia -5.39057
lfoot -58.0384 60.6584
ltoes 35.1299
627
root 1.34354 17.4968 9.69184 12.3675 -16.5138 -9.19702
lowerback -2.64317 -3.36483 3.30662
upperback -11.7527 -4.17085 4.79592
thorax -10.9559 -2.13474 3.62509
lowerneck -9.93251 -0.4135 0.399564
upperneck 31.4258 -2.41536 4.37483
head 12.0003 -0.612074 1.23623
rclavicle 5.9039e-014 -3.02153e-014
rhumerus -60.4149 -34.275 -42.6279
rradius 22.7311
rwrist 54.2331
rhand 5.15361 -31.5639
rfingers 7.12502
rthumb 30.5165 -59.0564
lclavicle 5.9039e-014 -3.02153e-014
lhumerus 23.7489 -18.4964 65.3674
lradius 142.767
lwrist 46.7283
lhand -0.8676 -10.6009
lfingers 7.12502
lthumb 24.7591 17.8166
rfemur -8.11694 27.2455 20.8355
rtibia 3.23516
rfoot -8.67137 -16.3028
rtoes -7.96481
lfemur 13.3134 -49.4524 -23.6479
ltibia -5.35654
lfoot -59.5103 60.7003
ltoes 35.5439
628
root 1.34751 17.4975 9.70258 12.4588 -16.6599 -9.24718
lowerback -2.74753 -3.34465 3.29491
upperback -11.7369 -4.15177 4.79557
thorax -10.8744 -2.12599 3.61961
lowerneck -10.3122 -0.429675 0.351163
upperneck 31.7842 -2.54232 4.6254
head 12.2347 -0.634251 1.32776
rclavicle -7.4743e-014 -7.55382e-015
rhumerus -60.5923 -34.4865 -42.4347
rradius 22.7821
rwrist 54.0886
rhand 5.22585 -31.4982
rfingers 7.12502
rthumb 30.5854 -58.9779
lclavicle -7.4743e-014 -7.55382e-015
lhumerus 23.9813 -18.5003 65.2243
lradius 142.656
lwrist 46.8101
lhand -0.834556 -10.9879
lfingers 7.12502
lthumb 24.7908 17.4253
rfemur -8.19501 27.2256 20.8166
rtibia 3.21144
rfoot -8.6073 -16.162
rtoes -7.9716
lfemur 13.4535 -49.7377 -23.8156
ltibia -5.31015
lfoot -60.4737 60.7752
ltoes 35.7474
629
root 1.35088 17.4979 9.71104 12.48 -16.8172 -9.24894
lowerback -2.73973 -3.31655 3.22912
upperback -11.7425 -4.11711 4.78522
thorax -10.8817 -2.10351 3.64339
lowerneck -10.6588 -0.455134 0.295612
upperneck 32.1777 -2.65426 4.7815
head 12.4773 -0.66185 1.38803
rclavicle -7.45443e-014 1.86858e-014
rhumerus -60.8057 -34.6747 -42.2229
rradius 22.8285
rwrist 54.0278
rhand 5.19724 -31.5548
rfingers 7.12502
rthumb 30.5581 -59.0396
lclavicle -7.45443e-014 1.86858e-014
lhumerus 24.1335 -18.4844 65.0555
lradius 142.563
lwrist 46.8944
lhand -0.621118 -11.6158
lfingers 7.12502
lthumb 24.9953 16.7691
rfemur -8.21558 27.2052 20.7731
rtibia 3.1854
rfoot -8.5324 -16.0117
rtoes -8.01386
lfemur 13.6387 -49.9322 -24.0601
ltibia -5.27239
lfoot -61.2032 60.8553
ltoes 35.9557
630
root 1.35463 17.4973 9.71884 12.4549 -16.9482 -9.22366
lowerback -2.70454 -3.29931 3.16101
upperback -11.7925 -4.09501 4.76566
thorax -10.9573 -2.08677 3.66569
lowerneck -10.6898 -0.472297 0.15802
upperneck 32.3864 -2.72877 4.97503
head 12.5783 -0.685445 1.47988
rclavicle -1.0148e-013 1.96797e-014
rhumerus -61.108 -34.8047 -41.9269
rradius 22.8538
rwrist 54.0869
rhand 5.20012 -31.5084
rfingers 7.12502
rthumb 30.5608 -58.9927
lclavicle -1.0148e-013 1.96797e-014
lhumerus 24.1204 -18.4666 64.9089
lradius 142.575
lwrist 46.9852
lhand -0.416455 -11.8395
lfingers 7.12502
lthumb 25.1914 16.5179
rfemur -8.17407 27.1844 20.734
rtibia 3.15847
rfoot -8.46191 -15.8812
rtoes -8.34614
lfemur 13.8858 -50.1199 -24.3724
ltibia -5.24203
lfoot -61.9635 60.8428
ltoes 36.3534
631
root 1.35841 17.496 9.72647 12.4413 -17.0338 -9.24734
lowerback -2.68472 -3.27661 3.18341
upperback -11.817 -4.06272 4.75591
thorax -11.0014 -2.07329 3.6447
lowerneck -10.5775 -0.476578 0.0498008
upperneck 32.2934 -2.71602 5.02461
head 12.5168 -0.689882 1.51808
rclavicle 2.14687e-014 2.78299e-015
rhumerus -61.3028 -34.9113 -41.7711
rradius 22.9109
rwrist 54.0447
rhand 5.22358 -31.3797
rfingers 7.12502
rthumb 30.5832 -58.8598
lclavicle 2.14687e-014 2.78299e-015
lhumerus 24.1618 -18.416 64.7459
lradius 142.611
lwrist 47.0927
lhand -0.447989 -11.6498
lfingers 7.12502
lthumb 25.1612 16.7119
rfemur -8.11508 27.2061 20.7595
rtibia 3.1273
rfoot -8.42667 -15.8197
rtoes -8.33514
lfemur 14.0405 -50.1468 -24.5169
ltibia -5.24429
lfoot -62.4018 60.7604
ltoes 36.7033
632
root 1.36071 17.4952 9.73272 12.4669 -17.1122 -9.30577
lowerback -2.68392 -3.25316 3.22129
upperback -11.8395 -4.02822 4.77084
thorax -11.0315 -2.05906 3.64
lowerneck -10.4458 -0.468201 0.132944
upperneck 32.0846 -2.62024 4.76839
head 12.3931 -0.673521 1.41458
rclavicle 8.85586e-014 -1.5704e-014
rhumerus -61.2694 -34.8515 -41.963
rradius 22.968
rwrist 53.7487
rhand 5.10349 -31.3519
rfingers 7.12502
rthumb 30.4687 -58.8533
lclavicle 8.85586e-014 -1.5704e-014
lhumerus 24.2069 -18.3286 64.5733
lradius 142.655
lwrist 47.2649
lhand -0.589401 -11.3739
lfingers 7.12502
lthumb 25.0257 17.0068
rfemur -8.12236 27.1989 20.8039
rtibia 3.13323
rfoot -8.41155 -15.7388
rtoes -8.07436
lfemur 14.0168 -50.0047 -24.4466
ltibia -5.25669
lfoot -62.3561 60.7176
ltoes 36.749
633
root 1.36305 17.4939 9.73837 12.5072 -17.1657 -9.29139
lowerback -2.71122 -3.23735 3.20249
upperback -11.8731 -4.00864 4.77012
thorax -11.0534 -2.04789 3.64907
lowerneck -10.3952 -0.446875 0.135983
upperneck 31.9078 -2.53483 4.64959
head 12.3043 -0.651984 1.37741
rclavicle 6.21202e-014 -7.7526e-014
rhumerus -61.1655 -34.7727 -42.2227
rradius 23.0007
rwrist 53.5351
rhand 5.05591 -31.3128
rfingers 7.12502
rthumb 30.4233 -58.8226
lclavicle 6.21202e-014 -7.7526e-014
lhumerus 24.2327 -18.2438 64.4257
lradius 142.684
lwrist 47.4945
lhand -0.920381 -11.1127
lfingers 7.12502
lthumb 24.7085 17.3117
rfemur -8.20304 27.1228 20.745
rtibia 3.18915
rfoot -8.41571 -15.6245
rtoes -8.00521
lfemur 13.9599 -49.9994 -24.4534
ltibia -5.2335
lfoot -62.3187 60.7859
ltoes 36.7253
634
root 1.36648 17.4919 9.74506 12.5368 -17.1732 -9.25007
lowerback -2.77966 -3.22183 3.20695
upperback -11.885 -3.99319 4.74343
thorax -11.0285 -2.04298 3.61216
lowerneck -10.413 -0.413546 -0.0303595
upperneck 31.8067 -2.47908 4.78197
head 12.268 -0.630375 1.46311
rclavicle 2.01766e-014 4.19436e-014
rhumerus -61.1014 -34.792 -42.4042
rradius 23.0659
rwrist 53.5224
rhand 5.26401 -31.2455
rfingers 7.12502
rthumb 30.6218 -58.7184
lclavicle 2.01766e-014 4.19436e-014
lhumerus 24.2822 -18.1646 64.3099
lradius 142.688
lwrist 47.7204
lhand -1.11323 -10.9386
lfingers 7.12502
lthumb 24.5237 17.5111
rfemur -8.25949 27.0559 20.6656
rtibia 3.2384
rfoot -8.4212 -15.5655
rtoes -8.01111
lfemur 13.951 -50.0869 -24.542
ltibia -5.19883
lfoot -62.4274 60.8352
ltoes 36.7171
635
root 1.36968 17.4912 9.7506 12.5462 -17.1312 -9.25507
lowerback -2.82383 -3.20015 3.27789
upperback -11.8795 -3.96621 4.70861
thorax -11.0044 -2.03887 3.52975
lowerneck -10.4372 -0.406483 -0.14495
upperneck 31.7426 -2.45264 4.8387
head 12.2476 -0.624718 1.50746
rclavicle -8.54774e-015 3.97569e-015
rhumerus -61.0112 -34.8045 -42.6387
rradius 23.1219
rwrist 53.5079
rhand 5.36543 -31.1157
rfingers 7.12502
rthumb 30.7185 -58.5704
lclavicle -8.54774e-015 3.97569e-015
lhumerus 24.3239 -18.0907 64.2192
lradius 142.703
lwrist 47.8988
lhand -1.11634 -10.8288
lfingers 7.12502
lthumb 24.5207 17.6212
rfemur -8.24521 27.0153 20.6668
rtibia 3.23795
rfoot -8.41579 -15.5785
rtoes -7.84335
lfemur 13.8985 -49.9993 -24.5008
ltibia -5.19232
lfoot -62.1062 60.8525
ltoes 36.4543
